<svg width="385" height="336" viewBox="0 0 385 336" fill="none" xmlns="http://www.w3.org/2000/svg">
<g clip-path="url(#clip0_183_922)">
<path d="M147.978 173.646C147.121 169.458 143.137 152.8 129.736 127.753L111.746 134.863C111.746 134.863 101.542 139.814 96.2758 120.338C96.2758 120.338 100.388 98.5551 91.1771 91.1281C91.1771 91.1281 87.5545 87.6634 82.9457 86.836C82.9457 86.836 81.4631 80.5079 82.5654 76.0543C82.5654 76.0543 103.192 64.4192 106.976 61.7496L86.2395 6.91638C86.2395 6.91638 38.0307 7.1103 0 45.6998L26.3315 97.1912C26.3315 97.1912 31.4366 99.3372 52.6629 89.1049C52.6629 89.1049 59.5793 88.6136 60.8943 94.0562C60.8943 94.0562 47.0679 105.943 53.8038 122.937C53.8038 122.937 56.7689 129.045 59.7276 132.51C59.7276 132.51 64.9939 144.061 66.1735 155.45L58.9154 161.229L79.4907 200.833L85.711 201.842C95.0704 199.172 119.958 191.073 147.978 173.646Z" fill="#7ED2FF" fill-opacity="0.23"/>
<path d="M336.611 90.2102C346.376 93.9463 356.69 98.4581 356.69 98.4581L385 45.3184C385 45.3184 363.729 18.9134 300.733 5.9274L284.225 45.0405C284.225 45.0405 273.196 36.4629 245.221 36.6374C245.221 36.6374 237.976 2.64373 218.554 5.28101C218.554 5.28101 199.797 -5.11295 156.513 3.30305C156.513 3.30305 141.043 4.59583 134.951 24.7567C134.951 24.7567 95.2898 39.1131 124.419 91.1022C124.419 91.1022 124.747 114.534 133.636 126.421L133.868 126.828C149.513 156.174 151.736 173.452 151.852 174.196C151.9 174.508 151.855 174.828 151.723 175.115C151.592 175.402 151.379 175.645 151.111 175.812L150.808 175.999C123.561 193.057 99.0928 201.422 88.5151 204.55C90.8357 209.437 98.9704 220.012 126.062 221.149L120.139 336.013H270.56C270.56 336.013 266.944 278.594 262.348 221.136C262.348 221.136 289.234 221.55 299.94 202.624C278.747 195.906 258.489 186.518 239.652 174.687L239.355 174.493C239.096 174.333 238.889 174.102 238.757 173.827C238.626 173.551 238.576 173.244 238.614 172.942C238.685 172.328 240.548 157.622 256.469 127.94L256.205 127.837C260.595 122.418 263.572 115.989 264.868 109.13C294.519 101.541 299.102 73.9212 299.102 73.9212C305.026 72.8223 303.821 86.4676 303.821 86.4676C287.79 94.3729 291.96 115.057 291.96 115.057C291.96 115.057 282.291 140.364 275.278 136.388C270.553 133.725 263.553 130.765 259.473 129.11C246.014 154.119 242.662 168.54 241.966 172.302C270.798 190.246 296.298 198.3 305.007 200.743L305.999 200.659L326.407 160.951L321.47 157.764C321.47 157.764 321.25 131.689 333.323 125.962C333.323 125.962 345.281 104.948 325.421 93.0672C325.421 93.0802 326.845 86.4676 336.611 90.2102Z" fill="#7ED2FF" fill-opacity="0.23"/>
<path d="M213.017 106.383C213.017 106.383 208.08 101.431 211.483 98.0185C214.887 94.6056 215.538 97.579 215.538 97.579C215.538 97.579 216.64 104.179 220.695 104.618C224.749 105.058 226.07 100.326 226.07 100.326C226.07 100.326 227.94 95.7109 224.975 93.0672C222.009 90.4234 225.851 90.8695 225.851 90.8695C225.851 90.8695 232.768 90.6497 232.877 99.3372C232.987 108.025 224.865 109.24 224.865 109.24C222.804 109.697 220.665 109.678 218.612 109.183C216.559 108.688 214.646 107.73 213.017 106.383Z" fill="#E5C630"/>
<path d="M164.795 90.4299C164.795 90.4299 160.625 88.5296 158.35 93.3128C156.074 98.0961 158.678 102.97 158.678 102.97C158.678 102.97 163.12 109.156 171.1 107.753C179.08 106.351 178.757 100.643 178.757 100.643C178.938 99.3757 178.737 98.0831 178.18 96.9313C177.623 95.7794 176.735 94.821 175.631 94.179C173.568 92.9379 174.065 96.5706 174.065 96.5706C174.065 96.5706 172.337 103.681 168.225 103.5C164.112 103.319 163.081 99.0916 163.081 99.0916C162.413 97.454 162.242 95.6549 162.591 93.9204C163.178 90.9212 165.182 92.0782 164.795 90.4299Z" fill="#E5C630"/>
<path d="M186.615 123.46C188.71 123.105 195.497 122.168 200.931 123.506C201 123.518 201.064 123.549 201.116 123.596C201.168 123.643 201.206 123.703 201.226 123.771C201.245 123.838 201.245 123.909 201.226 123.977C201.207 124.044 201.17 124.105 201.118 124.152C200.042 125.374 196.967 128.709 193.841 130.732C193.778 130.775 193.704 130.798 193.628 130.798C193.552 130.798 193.478 130.775 193.415 130.732C190.825 128.807 188.469 126.583 186.396 124.107C186.346 124.056 186.311 123.993 186.295 123.924C186.279 123.855 186.283 123.783 186.306 123.716C186.329 123.648 186.37 123.589 186.424 123.544C186.479 123.499 186.545 123.47 186.615 123.46Z" fill="#E5C630"/>
<path d="M193.705 129.653L193.538 140.655L199.081 145.438" stroke="#E5C630" stroke-width="2" stroke-miterlimit="10" stroke-linecap="round"/>
<path d="M187.015 144.727L193.544 140.655" stroke="#E5C630" stroke-width="2" stroke-miterlimit="10" stroke-linecap="round"/>
<path d="M219.985 97.7536C221.014 97.7536 221.848 96.9172 221.848 95.8855C221.848 94.8538 221.014 94.0175 219.985 94.0175C218.957 94.0175 218.123 94.8538 218.123 95.8855C218.123 96.9172 218.957 97.7536 219.985 97.7536Z" fill="#7ED2FF" fill-opacity="0.23"/>
<path d="M167.761 96.9843C168.79 96.9843 169.624 96.1479 169.624 95.1162C169.624 94.0845 168.79 93.2482 167.761 93.2482C166.732 93.2482 165.898 94.0845 165.898 95.1162C165.898 96.1479 166.732 96.9843 167.761 96.9843Z" fill="#7ED2FF" fill-opacity="0.23"/>
</g>
<defs>
<clipPath id="clip0_183_922">
<rect width="385" height="336" fill="white"/>
</clipPath>
</defs>
</svg>
