<svg width="80" height="80" viewBox="0 0 80 80" fill="none" xmlns="http://www.w3.org/2000/svg">
<circle cx="40" cy="40" r="40" fill="#46BEFF"/>
<mask id="mask0_856_515" style="mask-type:alpha" maskUnits="userSpaceOnUse" x="20" y="16" width="40" height="40">
<rect x="20" y="16" width="40" height="40" fill="#D9D9D9"/>
</mask>
<g mask="url(#mask0_856_515)">
<path d="M23.332 56V49.3333H56.6654V56H23.332ZM26.6654 46V39.75L41.7487 24.6666L47.9987 30.9166L32.9154 46H26.6654ZM29.9987 42.6666H31.4987L43.332 30.9166L41.7487 29.3333L29.9987 41.1666V42.6666ZM49.8737 29.0833L43.6237 22.8333L46.6237 19.8333C46.9293 19.5 47.3181 19.34 47.7904 19.3533C48.2626 19.3678 48.6515 19.5278 48.957 19.8333L52.8737 23.75C53.1793 24.0555 53.332 24.4378 53.332 24.8966C53.332 25.3544 53.1793 25.75 52.8737 26.0833L49.8737 29.0833Z" fill="white"/>
</g>
</svg>
