<svg width="40" height="41" viewBox="0 0 40 41" fill="none" xmlns="http://www.w3.org/2000/svg">
<mask id="mask0_856_494" style="mask-type:alpha" maskUnits="userSpaceOnUse" x="0" y="0" width="40" height="41">
<rect width="40" height="40.2258" fill="#D9D9D9"/>
</mask>
<g mask="url(#mask0_856_494)">
<path d="M9.7526 28.661C11.1693 27.5716 12.7526 26.7123 14.5026 26.0832C16.2526 25.4553 18.0859 25.1413 20.0026 25.1413C21.9193 25.1413 23.7526 25.4553 25.5026 26.0832C27.2526 26.7123 28.8359 27.5716 30.2526 28.661C31.2248 27.5157 31.982 26.2168 32.5243 24.7642C33.0654 23.3116 33.3359 21.7612 33.3359 20.113C33.3359 16.3977 32.0376 13.2339 29.4409 10.6214C26.8432 8.01011 23.697 6.70444 20.0026 6.70444C16.3082 6.70444 13.1626 8.01011 10.5659 10.6214C7.96816 13.2339 6.66927 16.3977 6.66927 20.113C6.66927 21.7612 6.94038 23.3116 7.4826 24.7642C8.02372 26.2168 8.78038 27.5157 9.7526 28.661ZM20.0026 21.7891C18.3637 21.7891 16.9815 21.2237 15.8559 20.0929C14.7315 18.961 14.1693 17.571 14.1693 15.9229C14.1693 14.2747 14.7315 12.8847 15.8559 11.7528C16.9815 10.622 18.3637 10.0566 20.0026 10.0566C21.6415 10.0566 23.0237 10.622 24.1493 11.7528C25.2737 12.8847 25.8359 14.2747 25.8359 15.9229C25.8359 17.571 25.2737 18.961 24.1493 20.0929C23.0237 21.2237 21.6415 21.7891 20.0026 21.7891ZM20.0026 36.8738C17.697 36.8738 15.5304 36.4335 13.5026 35.553C11.4748 34.6737 9.71094 33.4797 8.21094 31.9713C6.71094 30.4628 5.52372 28.689 4.64927 26.6497C3.77372 24.6105 3.33594 22.4316 3.33594 20.113C3.33594 17.7945 3.77372 15.6156 4.64927 13.5764C5.52372 11.5371 6.71094 9.76328 8.21094 8.25481C9.71094 6.74635 11.4748 5.55186 13.5026 4.67137C15.5304 3.79199 17.697 3.35229 20.0026 3.35229C22.3082 3.35229 24.4748 3.79199 26.5026 4.67137C28.5304 5.55186 30.2943 6.74635 31.7943 8.25481C33.2943 9.76328 34.4815 11.5371 35.3559 13.5764C36.2315 15.6156 36.6693 17.7945 36.6693 20.113C36.6693 22.4316 36.2315 24.6105 35.3559 26.6497C34.4815 28.689 33.2943 30.4628 31.7943 31.9713C30.2943 33.4797 28.5304 34.6737 26.5026 35.553C24.4748 36.4335 22.3082 36.8738 20.0026 36.8738ZM20.0026 33.5216C21.4748 33.5216 22.8637 33.3054 24.1693 32.873C25.4748 32.4395 26.6693 31.8176 27.7526 31.0075C26.6693 30.1974 25.4748 29.5756 24.1693 29.1421C22.8637 28.7096 21.4748 28.4934 20.0026 28.4934C18.5304 28.4934 17.1415 28.7096 15.8359 29.1421C14.5304 29.5756 13.3359 30.1974 12.2526 31.0075C13.3359 31.8176 14.5304 32.4395 15.8359 32.873C17.1415 33.3054 18.5304 33.5216 20.0026 33.5216ZM20.0026 18.437C20.7248 18.437 21.322 18.1995 21.7943 17.7246C22.2665 17.2498 22.5026 16.6492 22.5026 15.9229C22.5026 15.1966 22.2665 14.596 21.7943 14.1211C21.322 13.6462 20.7248 13.4087 20.0026 13.4087C19.2804 13.4087 18.6832 13.6462 18.2109 14.1211C17.7387 14.596 17.5026 15.1966 17.5026 15.9229C17.5026 16.6492 17.7387 17.2498 18.2109 17.7246C18.6832 18.1995 19.2804 18.437 20.0026 18.437Z" fill="#403F42" fill-opacity="0.77"/>
</g>
</svg>
